<mxfile host="app.diagrams.net" modified="2023-09-25T03:06:15.233Z" agent="Mozilla/5.0 (Windows NT 10.0; Win64; x64) AppleWebKit/537.36 (KHTML, like Gecko) Chrome/116.0.0.0 Safari/537.36" etag="Nd4ynTr5ju_hJB_Rs8L_" version="21.8.2" type="google">
  <diagram name="Page-1" id="b5b7bab2-c9e2-2cf4-8b2a-24fd1a2a6d21">
    <mxGraphModel grid="1" page="1" gridSize="10" guides="1" tooltips="1" connect="1" arrows="1" fold="1" pageScale="1" pageWidth="1169" pageHeight="827" background="none" math="0" shadow="0">
      <root>
        <mxCell id="0" />
        <mxCell id="1" parent="0" />
        <mxCell id="XhfyleUfGTQJpIG3Y8TU-1" value="&amp;lt;&amp;lt;device&amp;gt;&amp;gt;&lt;br&gt;Web Browser Application&amp;nbsp;" style="verticalAlign=top;align=left;spacingTop=8;spacingLeft=2;spacingRight=12;shape=cube;size=10;direction=south;fontStyle=4;html=1;whiteSpace=wrap;" vertex="1" parent="1">
          <mxGeometry x="210" y="164" width="200" height="130" as="geometry" />
        </mxCell>
        <mxCell id="XhfyleUfGTQJpIG3Y8TU-2" value="Name: Anna Zheng&lt;span style=&quot;white-space: pre;&quot;&gt;&#x9;&lt;/span&gt;&lt;br&gt;UCFID: 5124034&lt;br&gt;" style="html=1;whiteSpace=wrap;" vertex="1" parent="1">
          <mxGeometry x="950" y="30" width="180" height="60" as="geometry" />
        </mxCell>
        <mxCell id="XhfyleUfGTQJpIG3Y8TU-3" value="&amp;lt;&amp;lt;device&amp;gt;&amp;gt;&lt;br&gt;Corporate Web Server&amp;nbsp;" style="verticalAlign=top;align=left;spacingTop=8;spacingLeft=2;spacingRight=12;shape=cube;size=10;direction=south;fontStyle=4;html=1;whiteSpace=wrap;" vertex="1" parent="1">
          <mxGeometry x="690" y="194" width="350" height="450" as="geometry" />
        </mxCell>
        <mxCell id="XhfyleUfGTQJpIG3Y8TU-6" value="&amp;lt;&amp;lt;device&amp;gt;&amp;gt;&lt;br&gt;Time Clock Database" style="verticalAlign=top;align=left;spacingTop=8;spacingLeft=2;spacingRight=12;shape=cube;size=10;direction=south;fontStyle=4;html=1;whiteSpace=wrap;" vertex="1" parent="1">
          <mxGeometry x="110" y="412" width="400" height="250" as="geometry" />
        </mxCell>
        <mxCell id="XhfyleUfGTQJpIG3Y8TU-7" value="Employee Records" style="swimlane;fontStyle=0;childLayout=stackLayout;horizontal=1;startSize=26;fillColor=none;horizontalStack=0;resizeParent=1;resizeParentMax=0;resizeLast=0;collapsible=1;marginBottom=0;whiteSpace=wrap;html=1;" vertex="1" parent="1">
          <mxGeometry x="130" y="484" width="160" height="78" as="geometry" />
        </mxCell>
        <mxCell id="XhfyleUfGTQJpIG3Y8TU-8" value="Employee_Name" style="text;strokeColor=none;fillColor=none;align=left;verticalAlign=top;spacingLeft=4;spacingRight=4;overflow=hidden;rotatable=0;points=[[0,0.5],[1,0.5]];portConstraint=eastwest;whiteSpace=wrap;html=1;" vertex="1" parent="XhfyleUfGTQJpIG3Y8TU-7">
          <mxGeometry y="26" width="160" height="26" as="geometry" />
        </mxCell>
        <mxCell id="XhfyleUfGTQJpIG3Y8TU-9" value="Employee_ID" style="text;strokeColor=none;fillColor=none;align=left;verticalAlign=top;spacingLeft=4;spacingRight=4;overflow=hidden;rotatable=0;points=[[0,0.5],[1,0.5]];portConstraint=eastwest;whiteSpace=wrap;html=1;" vertex="1" parent="XhfyleUfGTQJpIG3Y8TU-7">
          <mxGeometry y="52" width="160" height="26" as="geometry" />
        </mxCell>
        <mxCell id="XhfyleUfGTQJpIG3Y8TU-11" value="Time Data Records" style="swimlane;fontStyle=0;childLayout=stackLayout;horizontal=1;startSize=26;fillColor=none;horizontalStack=0;resizeParent=1;resizeParentMax=0;resizeLast=0;collapsible=1;marginBottom=0;whiteSpace=wrap;html=1;" vertex="1" parent="1">
          <mxGeometry x="320" y="484" width="160" height="156" as="geometry" />
        </mxCell>
        <mxCell id="XhfyleUfGTQJpIG3Y8TU-12" value="Employee_ID" style="text;strokeColor=none;fillColor=none;align=left;verticalAlign=top;spacingLeft=4;spacingRight=4;overflow=hidden;rotatable=0;points=[[0,0.5],[1,0.5]];portConstraint=eastwest;whiteSpace=wrap;html=1;" vertex="1" parent="XhfyleUfGTQJpIG3Y8TU-11">
          <mxGeometry y="26" width="160" height="26" as="geometry" />
        </mxCell>
        <mxCell id="XhfyleUfGTQJpIG3Y8TU-16" value="Date" style="text;strokeColor=none;fillColor=none;align=left;verticalAlign=top;spacingLeft=4;spacingRight=4;overflow=hidden;rotatable=0;points=[[0,0.5],[1,0.5]];portConstraint=eastwest;whiteSpace=wrap;html=1;" vertex="1" parent="XhfyleUfGTQJpIG3Y8TU-11">
          <mxGeometry y="52" width="160" height="26" as="geometry" />
        </mxCell>
        <mxCell id="XhfyleUfGTQJpIG3Y8TU-13" value="Start date" style="text;strokeColor=none;fillColor=none;align=left;verticalAlign=top;spacingLeft=4;spacingRight=4;overflow=hidden;rotatable=0;points=[[0,0.5],[1,0.5]];portConstraint=eastwest;whiteSpace=wrap;html=1;" vertex="1" parent="XhfyleUfGTQJpIG3Y8TU-11">
          <mxGeometry y="78" width="160" height="26" as="geometry" />
        </mxCell>
        <mxCell id="XhfyleUfGTQJpIG3Y8TU-14" value="Stop date" style="text;strokeColor=none;fillColor=none;align=left;verticalAlign=top;spacingLeft=4;spacingRight=4;overflow=hidden;rotatable=0;points=[[0,0.5],[1,0.5]];portConstraint=eastwest;whiteSpace=wrap;html=1;" vertex="1" parent="XhfyleUfGTQJpIG3Y8TU-11">
          <mxGeometry y="104" width="160" height="26" as="geometry" />
        </mxCell>
        <mxCell id="XhfyleUfGTQJpIG3Y8TU-15" value="Elapsed_time" style="text;strokeColor=none;fillColor=none;align=left;verticalAlign=top;spacingLeft=4;spacingRight=4;overflow=hidden;rotatable=0;points=[[0,0.5],[1,0.5]];portConstraint=eastwest;whiteSpace=wrap;html=1;" vertex="1" parent="XhfyleUfGTQJpIG3Y8TU-11">
          <mxGeometry y="130" width="160" height="26" as="geometry" />
        </mxCell>
        <mxCell id="XhfyleUfGTQJpIG3Y8TU-17" value="" style="endArrow=none;html=1;rounded=0;exitX=0;exitY=0;exitDx=60;exitDy=0;exitPerimeter=0;entryX=0.277;entryY=0.994;entryDx=0;entryDy=0;entryPerimeter=0;" edge="1" parent="1" source="XhfyleUfGTQJpIG3Y8TU-1" target="XhfyleUfGTQJpIG3Y8TU-3">
          <mxGeometry width="50" height="50" relative="1" as="geometry">
            <mxPoint x="470" y="294" as="sourcePoint" />
            <mxPoint x="520" y="244" as="targetPoint" />
          </mxGeometry>
        </mxCell>
        <mxCell id="XhfyleUfGTQJpIG3Y8TU-18" value="HTTP Request/ Response" style="text;html=1;strokeColor=none;fillColor=none;align=center;verticalAlign=middle;whiteSpace=wrap;rounded=0;rotation=20;" vertex="1" parent="1">
          <mxGeometry x="500" y="234" width="120" height="30" as="geometry" />
        </mxCell>
        <mxCell id="XhfyleUfGTQJpIG3Y8TU-21" value="" style="endArrow=none;html=1;rounded=0;entryX=0.532;entryY=0.994;entryDx=0;entryDy=0;entryPerimeter=0;" edge="1" parent="1" target="XhfyleUfGTQJpIG3Y8TU-3">
          <mxGeometry width="50" height="50" relative="1" as="geometry">
            <mxPoint x="510" y="544" as="sourcePoint" />
            <mxPoint x="620" y="474" as="targetPoint" />
          </mxGeometry>
        </mxCell>
        <mxCell id="XhfyleUfGTQJpIG3Y8TU-22" value="Database Connection" style="text;html=1;strokeColor=none;fillColor=none;align=center;verticalAlign=middle;whiteSpace=wrap;rounded=0;rotation=-30;" vertex="1" parent="1">
          <mxGeometry x="540" y="454" width="95" height="30" as="geometry" />
        </mxCell>
        <mxCell id="XhfyleUfGTQJpIG3Y8TU-23" value="" style="rounded=0;whiteSpace=wrap;html=1;" vertex="1" parent="1">
          <mxGeometry x="730" y="264" width="270" height="350" as="geometry" />
        </mxCell>
        <mxCell id="XhfyleUfGTQJpIG3Y8TU-24" value="" style="rounded=0;whiteSpace=wrap;html=1;" vertex="1" parent="1">
          <mxGeometry x="760" y="314" width="200" height="130" as="geometry" />
        </mxCell>
        <mxCell id="XhfyleUfGTQJpIG3Y8TU-25" value="Web Application" style="text;html=1;strokeColor=none;fillColor=none;align=center;verticalAlign=middle;whiteSpace=wrap;rounded=0;" vertex="1" parent="1">
          <mxGeometry x="810" y="274" width="110" height="30" as="geometry" />
        </mxCell>
        <mxCell id="XhfyleUfGTQJpIG3Y8TU-28" value="Time Clock Data Entry" style="text;html=1;strokeColor=none;fillColor=none;align=center;verticalAlign=middle;whiteSpace=wrap;rounded=0;" vertex="1" parent="1">
          <mxGeometry x="780" y="334" width="160" height="30" as="geometry" />
        </mxCell>
        <mxCell id="XhfyleUfGTQJpIG3Y8TU-29" value="Security&amp;nbsp;" style="rounded=0;whiteSpace=wrap;html=1;" vertex="1" parent="1">
          <mxGeometry x="790" y="384" width="135" height="40" as="geometry" />
        </mxCell>
        <mxCell id="XhfyleUfGTQJpIG3Y8TU-30" value="" style="rounded=0;whiteSpace=wrap;html=1;" vertex="1" parent="1">
          <mxGeometry x="760" y="476" width="200" height="108" as="geometry" />
        </mxCell>
        <mxCell id="XhfyleUfGTQJpIG3Y8TU-31" value="Weekly Time Report" style="text;html=1;strokeColor=none;fillColor=none;align=center;verticalAlign=middle;whiteSpace=wrap;rounded=0;" vertex="1" parent="1">
          <mxGeometry x="782.5" y="484" width="150" height="30" as="geometry" />
        </mxCell>
        <mxCell id="XhfyleUfGTQJpIG3Y8TU-32" value="Security&amp;nbsp;" style="rounded=0;whiteSpace=wrap;html=1;" vertex="1" parent="1">
          <mxGeometry x="790" y="524" width="135" height="40" as="geometry" />
        </mxCell>
        <mxCell id="XhfyleUfGTQJpIG3Y8TU-33" value="Website" style="rounded=0;whiteSpace=wrap;html=1;" vertex="1" parent="1">
          <mxGeometry x="250" y="224" width="120" height="50" as="geometry" />
        </mxCell>
      </root>
    </mxGraphModel>
  </diagram>
</mxfile>
